<?xml version="1.0" encoding="UTF-8" standalone="no"?>
<!-- Generator: Adobe Illustrator 15.0.2, SVG Export Plug-In  -->

<svg
   xmlns:dc="http://purl.org/dc/elements/1.1/"
   xmlns:cc="http://creativecommons.org/ns#"
   xmlns:rdf="http://www.w3.org/1999/02/22-rdf-syntax-ns#"
   xmlns:svg="http://www.w3.org/2000/svg"
   xmlns="http://www.w3.org/2000/svg"
   xmlns:sodipodi="http://sodipodi.sourceforge.net/DTD/sodipodi-0.dtd"
   xmlns:inkscape="http://www.inkscape.org/namespaces/inkscape"
   version="1.1"
   x="0px"
   y="0px"
   width="24px"
   height="24px"
   viewBox="0 0 24 24"
   enable-background="new 0 0 24 24"
   xml:space="preserve"
   id="svg2"
   inkscape:version="0.48.3.1 r9886"
   sodipodi:docname="map.svg"><metadata
   id="metadata9"><rdf:RDF><cc:Work
       rdf:about=""><dc:format>image/svg+xml</dc:format><dc:type
         rdf:resource="http://purl.org/dc/dcmitype/StillImage" /><dc:title></dc:title></cc:Work></rdf:RDF></metadata><sodipodi:namedview
   pagecolor="#ffffff"
   bordercolor="#666666"
   borderopacity="1"
   objecttolerance="10"
   gridtolerance="10"
   guidetolerance="10"
   inkscape:pageopacity="0"
   inkscape:pageshadow="2"
   inkscape:window-width="640"
   inkscape:window-height="480"
   id="namedview7"
   showgrid="false"
   inkscape:zoom="9.8333333"
   inkscape:cx="12"
   inkscape:cy="12"
   inkscape:window-x="0"
   inkscape:window-y="24"
   inkscape:window-maximized="0"
   inkscape:current-layer="svg2" />
<defs
   id="defs4">
</defs>
<path
   id="location-17-icon_2_"
   fill="#003366"
   d="M19.443,6.848C19.443,3.066,16.378,0,12.596,0C8.814,0,5.748,3.066,5.748,6.848  c0,3.781,2.997,8.177,6.848,14.771C16.446,15.024,19.443,10.629,19.443,6.848z M10.14,6.681c0-1.356,1.099-2.456,2.456-2.456  s2.456,1.1,2.456,2.456c0,1.356-1.1,2.456-2.456,2.456S10.14,8.038,10.14,6.681z M21.061,16.971h-3.595  c-0.343,0.593-0.701,1.203-1.076,1.835h3.54l0.815,1.624h-5.319c-0.179,0.301-0.359,0.606-0.543,0.917h2.289l0.833,2.011H7.848  l0.874-2.011h1.586c-0.183-0.311-0.364-0.616-0.543-0.918h-3.28l-0.659-1.623h2.975c-0.374-0.632-0.733-1.242-1.076-1.835H4.131  L0,25.191h25.191L21.061,16.971z M6.848,23.357H2.975l2.052-4.084l0.842,2.073h1.854L6.848,23.357z M18.165,21.347h3.041  l1.011,2.011h-3.22L18.165,21.347z"
   style="fill:#ffffff" />
</svg>