<?xml version="1.0" encoding="utf-8"?>
<!-- Generator: Adobe Illustrator 15.0.2, SVG Export Plug-In  -->
<!DOCTYPE svg PUBLIC "-//W3C//DTD SVG 1.1//EN" "http://www.w3.org/Graphics/SVG/1.1/DTD/svg11.dtd" [
	<!ENTITY ns_flows "http://ns.adobe.com/Flows/1.0/">
]>
<svg version="1.1"
	 xmlns="http://www.w3.org/2000/svg" xmlns:xlink="http://www.w3.org/1999/xlink" xmlns:a="http://ns.adobe.com/AdobeSVGViewerExtensions/3.0/"
	 x="0px" y="0px" width="24px" height="24px" viewBox="0 0 24 24" enable-background="new 0 0 24 24" xml:space="preserve">
<defs>
</defs>
<path id="location-17-icon_2_" fill="#003366" d="M19.443,6.848C19.443,3.066,16.378,0,12.596,0C8.814,0,5.748,3.066,5.748,6.848
	c0,3.781,2.997,8.177,6.848,14.771C16.446,15.024,19.443,10.629,19.443,6.848z M10.14,6.681c0-1.356,1.099-2.456,2.456-2.456
	s2.456,1.1,2.456,2.456c0,1.356-1.1,2.456-2.456,2.456S10.14,8.038,10.14,6.681z M21.061,16.971h-3.595
	c-0.343,0.593-0.701,1.203-1.076,1.835h3.54l0.815,1.624h-5.319c-0.179,0.301-0.359,0.606-0.543,0.917h2.289l0.833,2.011H7.848
	l0.874-2.011h1.586c-0.183-0.311-0.364-0.616-0.543-0.918h-3.28l-0.659-1.623h2.975c-0.374-0.632-0.733-1.242-1.076-1.835H4.131
	L0,25.191h25.191L21.061,16.971z M6.848,23.357H2.975l2.052-4.084l0.842,2.073h1.854L6.848,23.357z M18.165,21.347h3.041
	l1.011,2.011h-3.22L18.165,21.347z"/>
</svg>
