<?xml version="1.0" encoding="utf-8"?>
<!-- Generator: Adobe Illustrator 15.0.2, SVG Export Plug-In  -->
<!DOCTYPE svg PUBLIC "-//W3C//DTD SVG 1.1//EN" "http://www.w3.org/Graphics/SVG/1.1/DTD/svg11.dtd" [
	<!ENTITY ns_flows "http://ns.adobe.com/Flows/1.0/">
]>
<svg version="1.1"
	 xmlns="http://www.w3.org/2000/svg" xmlns:xlink="http://www.w3.org/1999/xlink" xmlns:a="http://ns.adobe.com/AdobeSVGViewerExtensions/3.0/"
	 x="0px" y="0px" width="24px" height="24px" viewBox="-5 0 24 24" enable-background="new -5 0 24 24" xml:space="preserve">
<defs>
</defs>
<path id="smartphone-icon_2_" fill="#003366" d="M12.949,0H1.426C0.639,0,0,0.631,0,1.41c0,0,0,18.631,0,19.356
	C-0.002,23.764,4.48,23.999,7.177,24s7.198-0.229,7.198-3.234c0-0.727,0-19.356,0-19.356C14.375,0.631,13.737,0,12.949,0z
	 M7.187,22.148c-0.787,0-1.426-0.631-1.426-1.409c0-0.779,0.639-1.41,1.426-1.41c0.788,0,1.426,0.631,1.426,1.41
	C8.613,21.517,7.975,22.148,7.187,22.148z M12.277,17.803H2.099V3.353h10.178V17.803z"/>
</svg>
